<svg xmlns="http://www.w3.org/2000/svg" viewBox="0 0 100 100">
  <defs>
    <linearGradient id="bg" x1="8" y1="8" x2="92" y2="92" gradientUnits="userSpaceOnUse">
      <stop offset="0%" stop-color="#f0f5ff"/>
      <stop offset="100%" stop-color="#1cb0f6" stop-opacity="0.1"/>
    </linearGradient>
  </defs>

  <!-- background box — matches Logo.tsx: rounded-2xl, border-brand-200/50 -->
  <rect x="8" y="8" width="84" height="84" rx="20" fill="url(#bg)" stroke="#c7d7fe" stroke-opacity="0.5" stroke-width="1.5"/>

  <!-- BookOpen icon from lucide-react, scaled 3.2x and centered -->
  <g transform="translate(11.6, 11.6) scale(3.2)" stroke="#4361ee" stroke-width="0.78" stroke-linecap="round" stroke-linejoin="round">
    <!-- spine -->
    <path d="M12 7v14" fill="none"/>
    <!-- book pages — filled with brand-500 at partial opacity -->
    <path d="M3 18a1 1 0 0 1-1-1V4a1 1 0 0 1 1-1h5a4 4 0 0 1 4 4 4 4 0 0 1 4-4h5a1 1 0 0 1 1 1v13a1 1 0 0 1-1 1h-6a3 3 0 0 0-3 3 3 3 0 0 0-3-3z"
          fill="#5b7cf5" fill-opacity="0.45"/>
  </g>
</svg>
